<?xml version="1.0" standalone="yes"?>
<!-- SVG graphic -->
<svg xmlns='http://www.w3.org/2000/svg' xmlns:xlink='http://www.w3.org/1999/xlink'
 version="1.1">
<rect x="0" y="0" width="6" height="200" stroke="black" stroke-width="1" fill="blue" tooltip="enable"><title>(0,9328)</title></rect><rect x="6" y="35.3988" width="6" height="164.601" stroke="black" stroke-width="1" fill="blue" tooltip="enable"><title>(0.0847064,7677)</title></rect><rect x="12" y="74.8499" width="6" height="125.15" stroke="black" stroke-width="1" fill="blue" tooltip="enable"><title>(0.169413,5837)</title></rect><rect x="18" y="110.57" width="6" height="89.4297" stroke="black" stroke-width="1" fill="blue" tooltip="enable"><title>(0.254119,4171)</title></rect><rect x="24" y="132.997" width="6" height="67.0026" stroke="black" stroke-width="1" fill="blue" tooltip="enable"><title>(0.338825,3125)</title></rect><rect x="30" y="150.622" width="6" height="49.3782" stroke="black" stroke-width="1" fill="blue" tooltip="enable"><title>(0.423532,2303)</title></rect><rect x="36" y="163.186" width="6" height="36.8139" stroke="black" stroke-width="1" fill="blue" tooltip="enable"><title>(0.508238,1717)</title></rect><rect x="42" y="173.521" width="6" height="26.4794" stroke="black" stroke-width="1" fill="blue" tooltip="enable"><title>(0.592945,1235)</title></rect><rect x="48" y="179.46" width="6" height="20.5403" stroke="black" stroke-width="1" fill="blue" tooltip="enable"><title>(0.677651,958)</title></rect><rect x="54" y="183.812" width="6" height="16.1878" stroke="black" stroke-width="1" fill="blue" tooltip="enable"><title>(0.762357,755)</title></rect><rect x="60" y="187.693" width="6" height="12.307" stroke="black" stroke-width="1" fill="blue" tooltip="enable"><title>(0.847064,574)</title></rect><rect x="66" y="190.609" width="6" height="9.39108" stroke="black" stroke-width="1" fill="blue" tooltip="enable"><title>(0.93177,438)</title></rect><rect x="72" y="192.41" width="6" height="7.59005" stroke="black" stroke-width="1" fill="blue" tooltip="enable"><title>(1.01648,354)</title></rect><rect x="78" y="193.268" width="6" height="6.73242" stroke="black" stroke-width="1" fill="blue" tooltip="enable"><title>(1.10118,314)</title></rect><rect x="84" y="195.09" width="6" height="4.90995" stroke="black" stroke-width="1" fill="blue" tooltip="enable"><title>(1.18589,229)</title></rect><rect x="90" y="196.741" width="6" height="3.25901" stroke="black" stroke-width="1" fill="blue" tooltip="enable"><title>(1.2706,152)</title></rect><rect x="96" y="196.591" width="6" height="3.40909" stroke="black" stroke-width="1" fill="blue" tooltip="enable"><title>(1.3553,159)</title></rect><rect x="102" y="197.148" width="6" height="2.85163" stroke="black" stroke-width="1" fill="blue" tooltip="enable"><title>(1.44001,133)</title></rect><rect x="108" y="196.977" width="6" height="3.02316" stroke="black" stroke-width="1" fill="blue" tooltip="enable"><title>(1.52471,141)</title></rect><rect x="114" y="197.813" width="6" height="2.18696" stroke="black" stroke-width="1" fill="blue" tooltip="enable"><title>(1.60942,102)</title></rect><rect x="120" y="198.092" width="6" height="1.90823" stroke="black" stroke-width="1" fill="blue" tooltip="enable"><title>(1.69413,89)</title></rect><rect x="126" y="198.135" width="6" height="1.86535" stroke="black" stroke-width="1" fill="blue" tooltip="enable"><title>(1.77883,87)</title></rect><rect x="132" y="198.478" width="6" height="1.5223" stroke="black" stroke-width="1" fill="blue" tooltip="enable"><title>(1.86354,71)</title></rect><rect x="138" y="198.842" width="6" height="1.1578" stroke="black" stroke-width="1" fill="blue" tooltip="enable"><title>(1.94825,54)</title></rect><rect x="144" y="198.585" width="6" height="1.41509" stroke="black" stroke-width="1" fill="blue" tooltip="enable"><title>(2.03295,66)</title></rect><rect x="150" y="198.735" width="6" height="1.26501" stroke="black" stroke-width="1" fill="blue" tooltip="enable"><title>(2.11766,59)</title></rect><rect x="156" y="199.035" width="6" height="0.964837" stroke="black" stroke-width="1" fill="blue" tooltip="enable"><title>(2.20237,45)</title></rect><rect x="162" y="199.357" width="6" height="0.643225" stroke="black" stroke-width="1" fill="blue" tooltip="enable"><title>(2.28707,30)</title></rect><rect x="168" y="199.314" width="6" height="0.686106" stroke="black" stroke-width="1" fill="blue" tooltip="enable"><title>(2.37178,32)</title></rect><rect x="174" y="199.421" width="6" height="0.578902" stroke="black" stroke-width="1" fill="blue" tooltip="enable"><title>(2.45648,27)</title></rect><rect x="180" y="199.421" width="6" height="0.578902" stroke="black" stroke-width="1" fill="blue" tooltip="enable"><title>(2.54119,27)</title></rect><rect x="186" y="199.55" width="6" height="0.450257" stroke="black" stroke-width="1" fill="blue" tooltip="enable"><title>(2.6259,21)</title></rect><rect x="192" y="199.636" width="6" height="0.364494" stroke="black" stroke-width="1" fill="blue" tooltip="enable"><title>(2.7106,17)</title></rect><rect x="198" y="199.485" width="6" height="0.51458" stroke="black" stroke-width="1" fill="blue" tooltip="enable"><title>(2.79531,24)</title></rect><rect x="204" y="199.335" width="6" height="0.664666" stroke="black" stroke-width="1" fill="blue" tooltip="enable"><title>(2.88002,31)</title></rect><rect x="210" y="199.7" width="6" height="0.300172" stroke="black" stroke-width="1" fill="blue" tooltip="enable"><title>(2.96472,14)</title></rect><rect x="216" y="199.636" width="6" height="0.364494" stroke="black" stroke-width="1" fill="blue" tooltip="enable"><title>(3.04943,17)</title></rect><rect x="222" y="199.743" width="6" height="0.25729" stroke="black" stroke-width="1" fill="blue" tooltip="enable"><title>(3.13414,12)</title></rect><rect x="228" y="199.636" width="6" height="0.364494" stroke="black" stroke-width="1" fill="blue" tooltip="enable"><title>(3.21884,17)</title></rect><rect x="234" y="199.807" width="6" height="0.192967" stroke="black" stroke-width="1" fill="blue" tooltip="enable"><title>(3.30355,9)</title></rect><rect x="240" y="199.7" width="6" height="0.300172" stroke="black" stroke-width="1" fill="blue" tooltip="enable"><title>(3.38825,14)</title></rect><rect x="246" y="199.828" width="6" height="0.171527" stroke="black" stroke-width="1" fill="blue" tooltip="enable"><title>(3.47296,8)</title></rect><rect x="252" y="199.828" width="6" height="0.171527" stroke="black" stroke-width="1" fill="blue" tooltip="enable"><title>(3.55767,8)</title></rect><rect x="258" y="199.957" width="6" height="0.0428816" stroke="black" stroke-width="1" fill="blue" tooltip="enable"><title>(3.64237,2)</title></rect><rect x="264" y="199.828" width="6" height="0.171527" stroke="black" stroke-width="1" fill="blue" tooltip="enable"><title>(3.72708,8)</title></rect><rect x="270" y="199.979" width="6" height="0.0214408" stroke="black" stroke-width="1" fill="blue" tooltip="enable"><title>(3.81179,1)</title></rect><rect x="276" y="199.871" width="6" height="0.128645" stroke="black" stroke-width="1" fill="blue" tooltip="enable"><title>(3.89649,6)</title></rect><rect x="282" y="199.957" width="6" height="0.0428816" stroke="black" stroke-width="1" fill="blue" tooltip="enable"><title>(3.9812,2)</title></rect><rect x="288" y="199.936" width="6" height="0.0643225" stroke="black" stroke-width="1" fill="blue" tooltip="enable"><title>(4.06591,3)</title></rect><rect x="294" y="199.914" width="6" height="0.0857633" stroke="black" stroke-width="1" fill="blue" tooltip="enable"><title>(4.15061,4)</title></rect><rect x="300" y="199.936" width="6" height="0.0643225" stroke="black" stroke-width="1" fill="blue" tooltip="enable"><title>(4.23532,3)</title></rect><rect x="306" y="200" width="6" height="0" stroke="black" stroke-width="1" fill="blue" tooltip="enable"><title>(4.32002,0)</title></rect><rect x="312" y="199.979" width="6" height="0.0214408" stroke="black" stroke-width="1" fill="blue" tooltip="enable"><title>(4.40473,1)</title></rect><rect x="318" y="199.979" width="6" height="0.0214408" stroke="black" stroke-width="1" fill="blue" tooltip="enable"><title>(4.48944,1)</title></rect><rect x="324" y="199.979" width="6" height="0.0214408" stroke="black" stroke-width="1" fill="blue" tooltip="enable"><title>(4.57414,1)</title></rect><rect x="330" y="199.957" width="6" height="0.0428816" stroke="black" stroke-width="1" fill="blue" tooltip="enable"><title>(4.65885,2)</title></rect><rect x="336" y="200" width="6" height="0" stroke="black" stroke-width="1" fill="blue" tooltip="enable"><title>(4.74356,0)</title></rect><rect x="342" y="199.979" width="6" height="0.0214408" stroke="black" stroke-width="1" fill="blue" tooltip="enable"><title>(4.82826,1)</title></rect><rect x="348" y="200" width="6" height="0" stroke="black" stroke-width="1" fill="blue" tooltip="enable"><title>(4.91297,0)</title></rect><rect x="354" y="200" width="6" height="0" stroke="black" stroke-width="1" fill="blue" tooltip="enable"><title>(4.99768,0)</title></rect><rect x="360" y="199.957" width="6" height="0.0428816" stroke="black" stroke-width="1" fill="blue" tooltip="enable"><title>(5.08238,2)</title></rect><rect x="366" y="200" width="6" height="0" stroke="black" stroke-width="1" fill="blue" tooltip="enable"><title>(5.16709,0)</title></rect><rect x="372" y="200" width="6" height="0" stroke="black" stroke-width="1" fill="blue" tooltip="enable"><title>(5.25179,0)</title></rect><rect x="378" y="200" width="6" height="0" stroke="black" stroke-width="1" fill="blue" tooltip="enable"><title>(5.3365,0)</title></rect><rect x="384" y="200" width="6" height="0" stroke="black" stroke-width="1" fill="blue" tooltip="enable"><title>(5.42121,0)</title></rect><rect x="390" y="200" width="6" height="0" stroke="black" stroke-width="1" fill="blue" tooltip="enable"><title>(5.50591,0)</title></rect><rect x="396" y="200" width="6" height="0" stroke="black" stroke-width="1" fill="blue" tooltip="enable"><title>(5.59062,0)</title></rect><rect x="402" y="200" width="6" height="0" stroke="black" stroke-width="1" fill="blue" tooltip="enable"><title>(5.67533,0)</title></rect><rect x="408" y="199.979" width="6" height="0.0214408" stroke="black" stroke-width="1" fill="blue" tooltip="enable"><title>(5.76003,1)</title></rect><rect x="414" y="200" width="6" height="0" stroke="black" stroke-width="1" fill="blue" tooltip="enable"><title>(5.84474,0)</title></rect><rect x="420" y="200" width="6" height="0" stroke="black" stroke-width="1" fill="blue" tooltip="enable"><title>(5.92945,0)</title></rect><rect x="426" y="200" width="6" height="0" stroke="black" stroke-width="1" fill="blue" tooltip="enable"><title>(6.01415,0)</title></rect><rect x="432" y="200" width="6" height="0" stroke="black" stroke-width="1" fill="blue" tooltip="enable"><title>(6.09886,0)</title></rect><rect x="438" y="200" width="6" height="0" stroke="black" stroke-width="1" fill="blue" tooltip="enable"><title>(6.18356,0)</title></rect><rect x="444" y="200" width="6" height="0" stroke="black" stroke-width="1" fill="blue" tooltip="enable"><title>(6.26827,0)</title></rect><rect x="450" y="200" width="6" height="0" stroke="black" stroke-width="1" fill="blue" tooltip="enable"><title>(6.35298,0)</title></rect><rect x="456" y="200" width="6" height="0" stroke="black" stroke-width="1" fill="blue" tooltip="enable"><title>(6.43768,0)</title></rect><rect x="462" y="200" width="6" height="0" stroke="black" stroke-width="1" fill="blue" tooltip="enable"><title>(6.52239,0)</title></rect><rect x="468" y="200" width="6" height="0" stroke="black" stroke-width="1" fill="blue" tooltip="enable"><title>(6.6071,0)</title></rect><rect x="474" y="200" width="6" height="0" stroke="black" stroke-width="1" fill="blue" tooltip="enable"><title>(6.6918,0)</title></rect><rect x="480" y="200" width="6" height="0" stroke="black" stroke-width="1" fill="blue" tooltip="enable"><title>(6.77651,0)</title></rect><rect x="486" y="200" width="6" height="0" stroke="black" stroke-width="1" fill="blue" tooltip="enable"><title>(6.86122,0)</title></rect><rect x="492" y="200" width="6" height="0" stroke="black" stroke-width="1" fill="blue" tooltip="enable"><title>(6.94592,0)</title></rect><rect x="498" y="200" width="6" height="0" stroke="black" stroke-width="1" fill="blue" tooltip="enable"><title>(7.03063,0)</title></rect><rect x="504" y="200" width="6" height="0" stroke="black" stroke-width="1" fill="blue" tooltip="enable"><title>(7.11533,0)</title></rect><rect x="510" y="200" width="6" height="0" stroke="black" stroke-width="1" fill="blue" tooltip="enable"><title>(7.20004,0)</title></rect><rect x="516" y="200" width="6" height="0" stroke="black" stroke-width="1" fill="blue" tooltip="enable"><title>(7.28475,0)</title></rect><rect x="522" y="200" width="6" height="0" stroke="black" stroke-width="1" fill="blue" tooltip="enable"><title>(7.36945,0)</title></rect><rect x="528" y="200" width="6" height="0" stroke="black" stroke-width="1" fill="blue" tooltip="enable"><title>(7.45416,0)</title></rect><rect x="534" y="200" width="6" height="0" stroke="black" stroke-width="1" fill="blue" tooltip="enable"><title>(7.53887,0)</title></rect><rect x="540" y="200" width="6" height="0" stroke="black" stroke-width="1" fill="blue" tooltip="enable"><title>(7.62357,0)</title></rect><rect x="546" y="200" width="6" height="0" stroke="black" stroke-width="1" fill="blue" tooltip="enable"><title>(7.70828,0)</title></rect><rect x="552" y="200" width="6" height="0" stroke="black" stroke-width="1" fill="blue" tooltip="enable"><title>(7.79299,0)</title></rect><rect x="558" y="200" width="6" height="0" stroke="black" stroke-width="1" fill="blue" tooltip="enable"><title>(7.87769,0)</title></rect><rect x="564" y="200" width="6" height="0" stroke="black" stroke-width="1" fill="blue" tooltip="enable"><title>(7.9624,0)</title></rect><rect x="570" y="200" width="6" height="0" stroke="black" stroke-width="1" fill="blue" tooltip="enable"><title>(8.0471,0)</title></rect><rect x="576" y="200" width="6" height="0" stroke="black" stroke-width="1" fill="blue" tooltip="enable"><title>(8.13181,0)</title></rect><rect x="582" y="200" width="6" height="0" stroke="black" stroke-width="1" fill="blue" tooltip="enable"><title>(8.21652,0)</title></rect><rect x="588" y="200" width="6" height="0" stroke="black" stroke-width="1" fill="blue" tooltip="enable"><title>(8.30122,0)</title></rect><rect x="594" y="200" width="6" height="0" stroke="black" stroke-width="1" fill="blue" tooltip="enable"><title>(8.38593,0)</title></rect><text x="30" y="240" font-size="20" fill="black">0</text>
<text x="600" y="240" font-size="20" fill="black">8.47064</text>
<polyline points="0,220,600,220" stroke="black" stroke-width="1" fill="none"/>
<text x="720" y="20" font-size="20" fill="black">9328</text>
<text x="720" y="200" font-size="20" fill="black">0</text>
<polyline points="660,0,660,200" stroke="black" stroke-width="1" fill="none"/>
</svg>